<?xml version="1.0" encoding="UTF-8"?>
<svg xmlns="http://www.w3.org/2000/svg" xmlns:xlink="http://www.w3.org/1999/xlink" viewBox="0 0 64 64" width="64px" height="64px">
<g id="surface18558355">
<path style=" stroke:none;fill-rule:nonzero;fill:rgb(100%,100%,100%);fill-opacity:1;" d="M 32.1875 8 C 22.035156 8 12 14.765625 12 25.722656 C 12 32.6875 15.917969 36.648438 18.292969 36.648438 C 19.273438 36.648438 19.839844 33.917969 19.839844 33.144531 C 19.839844 32.222656 17.492188 30.261719 17.492188 26.433594 C 17.492188 18.476562 23.546875 12.839844 31.386719 12.839844 C 38.125 12.839844 43.113281 16.667969 43.113281 23.703125 C 43.113281 28.957031 41.003906 38.8125 34.175781 38.8125 C 31.710938 38.8125 29.605469 37.03125 29.605469 34.480469 C 29.605469 30.742188 32 27.117188 32 23.257812 C 32 16.707031 22.925781 17.894531 22.925781 25.8125 C 22.925781 27.472656 23.132812 29.3125 23.875 30.828125 C 22.511719 36.707031 20 46.074219 20 52.132812 C 20 54.003906 20.265625 55.84375 20.445312 57.714844 C 20.78125 58.089844 20.613281 58.050781 21.128906 57.863281 C 26.117188 51.035156 25.652344 49.089844 27.910156 40.152344 C 29.128906 42.46875 32.277344 43.714844 34.769531 43.714844 C 45.28125 43.714844 50 33.472656 50 24.238281 C 50 14.414062 41.507812 8 32.1875 8 Z M 32.1875 8 "/>
</g>
</svg>
