<?xml version="1.0" standalone="no"?>
<!DOCTYPE svg PUBLIC "-//W3C//DTD SVG 20010904//EN"
 "http://www.w3.org/TR/2001/REC-SVG-20010904/DTD/svg10.dtd">
<svg version="1.0" xmlns="http://www.w3.org/2000/svg"
 width="500.000000pt" height="500.000000pt" viewBox="0 0 500.000000 500.000000"
 preserveAspectRatio="xMidYMid meet">
<metadata>
Created by potrace 1.14, written by Peter Selinger 2001-2017
</metadata>
<g transform="translate(0.000000,500.000000) scale(0.100000,-0.100000)"
fill="#000000" stroke="none">
<path d="M2263 4604 c4 -7 -7 -12 -31 -13 -60 -4 -77 -6 -91 -16 -10 -6 -12
-4 -6 6 8 12 6 12 -8 0 -14 -11 -17 -11 -17 0 0 9 -3 10 -8 3 -4 -6 -19 -10
-34 -10 -14 0 -33 -6 -41 -12 -8 -7 -19 -12 -23 -11 -25 4 -36 -2 -30 -17 5
-14 4 -15 -9 -4 -8 7 -15 9 -15 4 0 -5 -5 -2 -10 6 -8 13 -10 13 -10 -1 0 -9
-7 -19 -15 -23 -8 -3 -15 0 -15 6 0 7 -7 3 -16 -8 -8 -10 -13 -14 -10 -8 3 7
-1 14 -9 17 -9 4 -12 1 -9 -7 4 -9 -3 -13 -21 -10 -15 1 -24 0 -21 -3 7 -7
-41 -33 -60 -33 -8 0 -14 -6 -14 -12 0 -9 -4 -8 -10 2 -9 13 -10 13 -10 0 0
-13 -1 -13 -10 0 -8 12 -10 10 -10 -10 0 -20 -2 -22 -11 -10 -8 11 -12 12 -16
2 -2 -7 -14 -17 -25 -23 -15 -8 -18 -8 -14 0 4 6 -6 3 -23 -6 -16 -10 -27 -21
-24 -26 3 -5 -4 -4 -16 2 -16 9 -19 9 -16 -2 4 -8 -3 -13 -16 -14 -12 -1 -25
-6 -28 -11 -12 -18 -82 -52 -94 -45 -7 4 -5 -2 3 -13 8 -10 10 -16 6 -12 -5 4
-16 2 -24 -5 -13 -10 -15 -9 -8 3 4 8 -2 4 -13 -9 -12 -13 -21 -19 -21 -15 0
5 -5 1 -11 -9 -6 -9 -14 -15 -20 -12 -5 4 -9 1 -9 -5 0 -6 -5 -8 -12 -4 -7 5
-9 2 -5 -8 4 -12 1 -14 -14 -11 -15 4 -22 0 -26 -16 -3 -11 -9 -18 -14 -16 -4
3 -13 -4 -19 -15 -6 -11 -14 -19 -18 -19 -17 3 -35 -2 -29 -7 7 -7 -32 -41
-47 -42 -5 0 -13 -7 -18 -16 -5 -9 -14 -13 -20 -10 -6 4 -8 3 -4 -4 3 -6 0
-17 -8 -25 -8 -8 -12 -18 -8 -23 4 -5 -2 -2 -13 6 -11 8 -17 11 -13 6 4 -5 -8
-23 -27 -41 -19 -17 -32 -35 -28 -39 3 -3 1 -6 -5 -6 -7 0 -21 -9 -32 -20 -11
-11 -17 -20 -14 -20 3 0 -8 -13 -25 -29 -16 -15 -28 -31 -25 -34 3 -3 -4 -10
-15 -17 -12 -6 -19 -15 -16 -21 4 -5 1 -9 -5 -9 -6 0 -8 -4 -5 -10 3 -5 -1
-10 -9 -10 -9 0 -16 -6 -16 -14 0 -8 -7 -16 -15 -20 -8 -3 -15 -12 -15 -21 0
-8 -5 -15 -11 -15 -5 0 -7 -4 -4 -10 3 -5 1 -10 -5 -10 -7 0 -9 -7 -6 -16 3
-8 2 -12 -4 -9 -6 3 -10 1 -10 -5 0 -6 -4 -9 -8 -6 -5 3 -9 -1 -10 -9 -1 -8
-3 -22 -4 -29 -1 -8 -4 -14 -7 -13 -3 1 -7 -2 -8 -6 -1 -4 -9 -15 -18 -23 -8
-9 -12 -20 -9 -26 4 -7 2 -8 -5 -4 -6 4 -14 0 -17 -11 -15 -45 -30 -73 -37
-73 -5 0 -5 -4 -2 -10 3 -5 1 -10 -5 -10 -7 0 -10 -6 -7 -14 3 -8 -1 -17 -8
-20 -8 -3 -12 -12 -9 -20 3 -8 -5 -21 -18 -31 -13 -10 -16 -15 -7 -12 9 3 16
-1 16 -9 0 -7 -3 -12 -6 -10 -3 2 -12 -2 -19 -10 -10 -11 -10 -14 0 -14 8 0 6
-4 -4 -11 -10 -5 -15 -16 -12 -24 4 -8 1 -15 -4 -15 -6 0 -9 -9 -7 -20 2 -12
-2 -23 -10 -26 -8 -3 -11 -13 -8 -21 4 -11 2 -14 -5 -9 -7 4 -10 -1 -7 -14 2
-11 -1 -20 -6 -20 -6 0 -7 -4 -4 -10 3 -5 1 -19 -6 -31 -9 -17 -8 -20 3 -13
10 6 11 5 1 -8 -7 -8 -10 -18 -6 -21 3 -4 1 -7 -5 -7 -6 0 -9 -7 -6 -15 4 -8
2 -15 -4 -15 -5 0 -8 -11 -7 -25 2 -14 0 -25 -4 -25 -4 0 -7 -12 -8 -27 -1
-49 -3 -54 -14 -47 -8 4 -8 0 0 -15 9 -16 9 -21 -1 -21 -10 0 -10 -2 0 -9 11
-7 11 -9 0 -14 -9 -3 -14 -18 -13 -41 0 -20 -3 -36 -7 -36 -5 0 -4 -9 2 -19 8
-16 6 -22 -7 -30 -10 -6 -13 -11 -6 -11 13 0 12 -68 -2 -89 -5 -10 -4 -12 3
-7 7 4 12 3 12 -3 0 -5 -5 -13 -10 -16 -7 -4 -6 -13 1 -27 8 -15 8 -19 0 -14
-6 4 -11 2 -11 -3 0 -6 6 -11 13 -11 9 0 9 -2 -1 -9 -11 -6 -10 -10 4 -15 16
-6 16 -8 -1 -26 -10 -11 -14 -20 -9 -20 13 0 12 -53 -1 -62 -6 -5 -6 -8 2 -8
6 0 10 -11 8 -25 -1 -14 2 -28 7 -31 6 -4 5 -10 -3 -15 -11 -7 -11 -9 1 -9 13
0 13 -1 0 -10 -9 -5 -10 -10 -3 -10 7 0 9 -11 7 -30 -3 -19 -1 -30 6 -30 7 0
10 -7 6 -15 -3 -8 -1 -15 4 -15 6 0 10 -5 10 -11 0 -5 -6 -7 -12 -3 -9 6 -9 3
1 -9 7 -9 11 -24 7 -32 -3 -8 -2 -15 3 -15 4 0 8 -6 9 -12 5 -74 11 -101 23
-109 12 -7 12 -9 0 -9 -9 0 -10 -4 -3 -12 5 -7 13 -24 17 -37 5 -18 4 -22 -6
-17 -8 4 -7 2 2 -6 9 -7 14 -19 11 -27 -3 -10 0 -11 9 -5 12 7 12 5 0 -9 -9
-12 -10 -17 -2 -17 7 0 9 -4 6 -10 -3 -5 -2 -10 3 -10 6 0 13 -7 16 -16 6 -15
4 -15 -11 -3 -12 9 -11 6 3 -11 12 -14 19 -31 17 -37 -3 -7 0 -13 6 -13 6 0
11 -9 11 -20 0 -11 5 -20 10 -20 6 0 9 -3 9 -7 -4 -22 2 -33 13 -27 8 5 7 0
-2 -11 -9 -11 -10 -16 -2 -11 8 5 12 0 12 -15 0 -12 8 -28 18 -36 9 -8 11 -11
4 -8 -11 6 -12 3 -3 -13 6 -12 16 -24 21 -27 6 -4 8 -11 5 -16 -4 -5 -1 -9 4
-9 6 0 11 -9 11 -19 0 -10 7 -22 16 -25 8 -3 12 -10 9 -16 -3 -5 -1 -10 5 -10
7 0 10 -7 7 -14 -4 -10 -1 -13 9 -9 9 3 14 -2 14 -16 0 -12 5 -21 10 -21 6 0
10 -9 10 -21 0 -11 4 -17 10 -14 5 3 10 -3 10 -15 0 -12 5 -18 10 -15 6 3 10
-3 10 -14 0 -11 9 -25 21 -31 12 -7 18 -18 15 -26 -3 -8 -1 -14 5 -14 6 0 17
-7 25 -15 9 -8 12 -15 9 -15 -4 0 1 -8 12 -17 10 -10 12 -13 4 -8 -11 8 -13 7
-7 -3 4 -7 19 -17 33 -23 13 -5 22 -13 18 -19 -8 -12 33 -52 46 -45 5 4 9 3 8
-2 -4 -24 2 -35 17 -29 14 6 15 4 4 -9 -11 -13 -11 -16 0 -13 7 2 19 -7 25
-19 7 -13 15 -20 18 -16 4 3 7 1 7 -6 0 -6 11 -16 25 -21 14 -5 29 -20 34 -32
5 -13 11 -22 15 -20 17 6 26 0 26 -18 0 -10 10 -24 21 -31 17 -9 20 -8 14 3
-4 7 3 2 15 -12 12 -14 18 -19 14 -11 -5 9 -3 12 4 7 7 -4 12 -14 12 -23 0 -9
3 -14 6 -10 4 3 12 1 20 -6 33 -30 44 -37 44 -30 0 4 7 -2 16 -13 8 -10 13
-13 9 -6 -13 25 5 11 19 -15 8 -16 15 -22 16 -14 0 9 7 7 19 -8 12 -14 25 -20
32 -15 8 4 9 3 5 -4 -4 -7 3 -14 18 -18 13 -3 27 -12 30 -20 3 -8 11 -14 18
-14 9 0 8 3 -2 10 -8 5 -10 10 -5 10 6 0 23 -11 38 -25 16 -16 27 -21 28 -13
0 7 4 3 9 -9 8 -20 26 -28 53 -24 4 0 7 -4 7 -9 0 -6 9 -10 20 -10 11 0 20 -4
20 -10 0 -5 9 -10 20 -10 11 0 20 -6 20 -12 0 -10 2 -10 9 0 6 11 10 10 15 -4
6 -16 8 -16 16 -4 8 12 10 12 10 1 0 -8 7 -11 20 -8 11 3 18 0 17 -7 -1 -6 6
-10 16 -8 9 2 17 -3 17 -12 0 -9 7 -12 19 -9 10 3 22 0 25 -6 4 -6 16 -11 27
-11 10 0 19 -6 19 -12 0 -9 3 -9 9 1 8 12 12 12 25 -1 9 -9 24 -14 36 -11 12
3 20 0 20 -7 0 -7 8 -10 20 -7 11 3 20 1 20 -5 0 -5 5 -6 10 -3 6 4 18 1 27
-7 11 -8 14 -9 10 -1 -5 8 1 8 20 -2 19 -10 29 -11 34 -4 4 7 9 8 13 1 3 -5
19 -8 36 -7 16 1 30 -2 30 -7 0 -6 8 -4 17 3 9 8 14 9 10 3 -4 -8 5 -12 28
-13 19 0 51 -2 70 -2 19 -1 35 -6 35 -13 0 -7 3 -7 8 -1 4 6 14 10 22 10 8 0
18 -4 22 -10 5 -6 8 -5 8 4 0 10 3 11 14 2 11 -9 15 -9 19 1 4 10 6 10 6 -1 1
-11 4 -11 16 -1 12 10 15 10 15 0 0 -9 4 -9 17 1 15 12 16 12 8 -1 -8 -13 -7
-13 8 -1 14 11 17 11 17 0 0 -11 2 -11 10 1 9 13 10 13 10 0 0 -12 2 -13 9 -1
7 11 9 11 14 0 5 -12 6 -12 6 0 1 11 4 11 16 1 12 -10 15 -10 15 0 0 10 3 10
15 0 9 -8 15 -8 15 -2 0 6 15 9 35 7 19 -2 37 0 40 4 6 10 46 8 63 -3 7 -4 12
-4 11 1 -3 20 2 23 22 12 17 -8 20 -8 14 1 -6 9 0 11 24 8 17 -2 31 -1 31 4 0
5 4 7 9 3 5 -3 12 -1 16 5 3 6 17 8 31 6 13 -3 22 -1 19 4 -8 13 28 22 37 8 6
-10 10 -10 17 1 5 8 18 12 30 8 12 -3 21 -2 21 3 0 4 7 11 16 14 8 3 12 2 9
-4 -11 -18 4 -11 26 13 12 12 19 16 15 10 -4 -8 -1 -13 9 -13 8 0 18 7 21 15
4 8 10 12 15 9 5 -3 23 5 41 17 17 13 29 18 25 12 -5 -8 1 -8 23 0 16 6 30 16
30 22 0 5 5 3 10 -5 6 -10 10 -11 10 -2 0 6 9 12 21 12 11 0 17 4 14 10 -3 6
1 7 9 4 10 -4 16 -1 16 7 0 11 3 11 10 -1 8 -13 10 -12 10 2 0 10 3 17 8 16
14 -3 82 32 82 43 0 5 5 7 10 4 6 -3 10 -1 10 5 0 6 4 9 9 6 5 -3 11 1 15 9 3
8 15 15 26 15 11 0 20 5 20 11 0 5 5 7 10 4 6 -3 10 -1 10 5 0 6 5 8 10 5 6
-3 10 -1 10 5 0 6 3 9 8 7 9 -6 33 19 25 27 -3 3 4 4 15 1 15 -3 19 0 15 11
-3 8 -2 14 3 13 24 -4 44 2 44 15 0 13 13 23 33 24 5 0 17 11 28 23 10 12 19
18 19 13 0 -5 9 5 20 21 11 17 20 27 20 23 0 -3 18 11 40 33 22 22 40 37 40
34 0 -3 9 4 20 15 11 11 20 24 20 30 0 5 4 9 8 7 9 -2 62 52 62 64 0 4 9 11
20 14 11 4 18 10 15 15 -3 4 2 11 11 14 9 4 14 13 10 22 -3 8 -2 12 4 9 6 -3
10 -2 10 4 0 5 9 12 19 16 11 3 22 13 26 22 5 15 4 15 -13 2 -10 -8 -6 -2 8
12 15 14 30 33 33 43 4 10 12 14 18 10 7 -4 9 -3 5 4 -3 6 1 18 10 26 8 9 13
16 9 16 -3 0 0 6 7 14 7 8 18 11 23 8 6 -3 3 3 -5 13 -9 11 -10 16 -2 11 11
-7 17 5 13 28 -1 5 5 6 13 3 10 -4 13 -1 10 7 -3 7 2 21 11 30 9 9 13 21 9 27
-4 8 -3 9 4 5 7 -4 12 -1 12 9 0 9 5 13 11 10 6 -4 9 -1 8 6 -4 23 12 49 25
42 6 -4 6 -1 -2 9 -10 13 -10 17 3 22 8 3 15 12 15 21 0 8 5 15 11 15 5 0 7 5
4 10 -3 6 0 10 7 10 9 0 9 3 -2 10 -12 7 -12 10 -1 10 8 0 11 6 7 16 -3 8 -2
12 4 9 8 -5 15 10 8 18 -2 1 8 17 22 36 13 19 19 32 13 28 -7 -5 -9 0 -6 13 3
11 13 20 22 20 13 0 13 2 2 9 -10 6 -10 10 -1 16 6 4 9 13 6 21 -3 8 -1 14 5
14 6 0 8 7 5 15 -3 9 1 18 10 22 13 5 13 7 2 14 -9 6 -9 9 -1 9 6 0 10 9 8 20
-2 11 2 20 8 20 7 0 6 4 -3 10 -12 7 -12 10 -1 10 8 0 11 6 7 16 -3 9 -2 12 5
8 6 -4 10 1 8 12 -1 11 1 27 6 37 4 9 5 24 1 32 -3 8 -1 15 5 15 6 0 7 4 4 10
-3 6 -1 10 6 10 8 0 7 5 -2 17 -8 10 -9 14 -2 10 7 -5 12 -1 12 10 0 30 7 69
16 83 6 9 4 11 -6 5 -12 -8 -12 -6 0 8 11 14 11 17 0 17 -10 0 -10 3 -3 8 15
9 23 92 9 92 -7 0 -7 3 0 8 6 4 10 21 9 37 0 17 2 35 5 40 9 17 10 35 0 41 -5
3 -9 10 -9 15 0 6 5 7 12 3 7 -5 8 -3 3 7 -13 20 -13 49 -1 49 8 0 8 3 0 8 -9
6 -12 44 -17 180 -1 12 -4 22 -7 22 -4 0 -7 7 -7 15 0 8 5 15 11 15 6 0 6 4
-2 8 -7 5 -13 25 -14 45 -1 20 -5 37 -10 37 -4 0 -8 5 -8 11 0 5 6 7 13 3 9
-6 9 -5 0 7 -6 8 -14 26 -17 39 -2 14 -8 34 -12 44 -6 15 -4 17 7 11 8 -5 4 3
-8 16 -18 20 -20 28 -11 37 9 9 9 12 -1 12 -7 0 -11 6 -8 14 3 7 0 19 -6 25
-6 6 -7 11 -1 11 5 0 2 5 -6 10 -11 7 -12 10 -2 10 10 0 9 4 -2 16 -9 8 -13
20 -10 26 4 6 1 14 -5 18 -7 4 -13 20 -15 35 -2 16 -8 31 -15 33 -6 2 -11 8
-11 13 0 6 5 7 11 3 6 -3 3 5 -6 20 -9 14 -22 23 -27 20 -6 -4 -5 4 2 16 8 15
8 20 1 16 -9 -6 -13 6 -10 30 0 4 -3 10 -8 13 -13 10 -33 49 -33 66 0 9 -4 13
-10 10 -5 -3 -11 0 -12 7 0 7 -2 18 -2 23 -1 6 -10 20 -21 33 -11 12 -19 25
-17 28 2 3 -7 14 -19 25 -12 10 -19 19 -15 19 4 0 2 9 -4 20 -6 11 -15 18 -20
15 -4 -3 -6 5 -2 17 3 14 2 19 -6 14 -7 -4 -12 -1 -12 8 0 9 -4 16 -10 16 -5
0 -7 7 -4 15 5 11 2 13 -10 9 -11 -4 -16 -1 -16 10 0 9 -11 28 -25 42 -14 14
-24 28 -21 32 2 4 -2 13 -10 20 -8 7 -14 10 -14 7 0 -3 -6 0 -14 7 -8 7 -13
18 -13 23 1 6 -4 9 -11 7 -6 -1 -11 4 -10 10 2 7 -3 12 -10 10 -8 -1 -11 2 -7
8 3 5 1 10 -5 10 -6 0 -8 5 -5 10 3 6 -1 10 -10 10 -11 0 -15 5 -11 16 3 8 2
13 -3 10 -5 -3 -20 9 -35 26 -14 18 -26 28 -26 23 0 -5 -7 1 -16 13 -8 12 -20
20 -25 16 -5 -3 -9 -2 -8 3 3 20 -3 29 -31 41 -17 8 -28 18 -24 23 3 5 0 9 -6
9 -5 0 -23 13 -38 28 -15 15 -20 18 -12 7 8 -12 0 -5 -19 14 -19 20 -30 30
-26 22 6 -10 4 -12 -4 -7 -7 5 -10 15 -6 23 4 12 2 13 -7 5 -14 -11 -42 10
-30 23 4 4 2 6 -3 5 -23 -5 -46 1 -40 10 3 6 -3 10 -14 10 -13 0 -21 7 -21 17
0 9 -3 13 -6 10 -4 -3 -16 -1 -28 5 -11 7 -23 13 -26 14 -23 5 -40 19 -40 31
0 8 -4 12 -9 8 -5 -3 -12 -1 -16 5 -3 5 -15 10 -26 10 -11 0 -22 7 -25 15 -4
10 -13 13 -26 9 -14 -4 -18 -2 -14 5 4 6 0 11 -8 11 -9 0 -16 5 -16 10 0 6
-12 10 -26 10 -14 0 -23 4 -19 10 4 6 -7 10 -24 10 -17 0 -31 4 -31 9 0 5 -7
12 -16 15 -10 4 -13 2 -8 -6 4 -6 -3 -4 -17 5 -13 9 -31 17 -40 17 -10 0 -20
6 -22 13 -4 9 -6 9 -6 -1 -1 -10 -5 -10 -16 2 -9 8 -23 12 -32 9 -12 -5 -14
-3 -8 7 6 10 3 12 -13 8 -12 -3 -23 -1 -26 6 -3 7 -5 6 -5 -2 -1 -10 -5 -9
-17 3 -13 13 -19 13 -32 3 -12 -10 -14 -10 -8 0 4 6 2 13 -3 13 -21 3 -26 4
-38 12 -8 5 -13 3 -13 -5 -1 -9 -4 -9 -13 3 -7 10 -26 15 -49 14 -21 0 -38 2
-38 5 0 3 -15 6 -32 7 -87 4 -107 7 -102 15 8 12 -19 5 -28 -7 -5 -6 -8 -4 -8
5 0 13 -1 13 -10 0 -9 -13 -10 -13 -10 0 0 13 -1 13 -10 0 -6 -10 -10 -11 -10
-2 0 9 -40 12 -164 12 -122 0 -166 -3 -169 -12 -4 -10 -6 -9 -6 1 -1 11 -4 11
-16 1 -12 -10 -18 -10 -32 1 -9 8 -14 9 -10 3z m-213 -44 c0 -5 -5 -10 -11
-10 -5 0 -7 5 -4 10 3 6 8 10 11 10 2 0 4 -4 4 -10z m923 -807 c30 -3 57 -24
57 -43 0 -6 6 -13 13 -16 7 -2 13 -17 12 -32 0 -15 6 -33 15 -40 8 -8 10 -11
3 -7 -8 3 -15 -5 -19 -22 -4 -15 -12 -31 -18 -35 -7 -5 -6 -8 4 -8 12 0 12 -2
2 -9 -7 -4 -14 -18 -15 -29 -1 -12 -5 -22 -10 -22 -5 0 -7 -11 -5 -25 3 -14 1
-23 -6 -22 -6 1 -10 -6 -8 -17 2 -12 -1 -16 -9 -10 -9 5 -10 2 -6 -9 3 -9 2
-19 -4 -22 -5 -4 -7 -11 -4 -16 4 -5 2 -9 -3 -9 -6 0 -9 -8 -8 -17 0 -10 -5
-17 -12 -15 -8 1 -11 -2 -7 -8 4 -6 1 -17 -5 -25 -7 -8 -10 -20 -8 -27 3 -7
-2 -19 -11 -26 -9 -8 -11 -11 -4 -8 8 5 8 0 0 -18 -7 -13 -14 -23 -18 -20 -3
2 -5 -8 -3 -21 1 -14 -2 -25 -8 -25 -6 0 -7 -7 -4 -15 3 -9 -1 -18 -8 -21 -8
-3 -12 -14 -8 -26 3 -14 1 -19 -6 -14 -8 5 -12 -1 -12 -16 0 -13 -6 -30 -12
-37 -11 -11 -10 -13 2 -7 9 5 8 2 -2 -7 -21 -16 -24 -32 -5 -21 8 5 8 3 -2 -9
-7 -9 -18 -14 -23 -11 -6 4 -5 -3 1 -15 9 -16 9 -21 0 -19 -6 2 -13 -8 -15
-22 -3 -13 -10 -28 -17 -32 -9 -6 -8 -8 3 -8 13 0 13 -1 0 -10 -8 -5 -10 -10
-5 -10 6 0 1 -7 -9 -15 -14 -11 -16 -15 -5 -15 12 0 12 -2 -1 -10 -8 -5 -11
-12 -7 -16 4 -4 -1 -13 -11 -20 -11 -7 -18 -23 -17 -36 1 -13 -2 -29 -7 -35
-6 -7 -8 -20 -4 -28 3 -9 2 -13 -4 -10 -5 3 -12 -6 -16 -21 -4 -15 -13 -39
-20 -53 -7 -13 -11 -28 -8 -33 3 -4 0 -8 -6 -8 -6 0 -8 -4 -5 -10 3 -5 1 -10
-5 -10 -6 0 -8 -4 -5 -10 3 -5 2 -10 -4 -10 -5 0 -8 -9 -6 -20 2 -11 -1 -20
-7 -20 -5 0 -7 -7 -4 -15 3 -9 -1 -18 -9 -21 -8 -4 -15 -10 -15 -16 0 -5 6 -6
13 -2 6 4 4 -2 -6 -14 -11 -11 -16 -26 -12 -31 3 -6 -1 -14 -10 -17 -12 -5
-13 -9 -4 -21 10 -11 10 -13 -1 -11 -8 2 -15 -3 -16 -9 -1 -7 -3 -16 -4 -20
-1 -5 -2 -11 -1 -15 0 -5 -4 -8 -10 -8 -6 0 -9 -7 -5 -15 3 -8 1 -15 -4 -15
-5 0 -7 -9 -5 -20 2 -11 -1 -23 -7 -26 -7 -5 -8 -2 -3 6 6 9 4 11 -4 6 -7 -5
-10 -14 -7 -21 2 -7 -2 -22 -10 -34 -12 -16 -12 -21 -2 -21 9 -1 8 -4 -3 -13
-9 -7 -15 -22 -14 -34 1 -12 -2 -20 -7 -17 -4 3 -8 -4 -8 -15 0 -12 -5 -21
-11 -21 -5 0 -8 -4 -4 -9 3 -5 -1 -16 -9 -24 -10 -9 -11 -18 -5 -26 5 -6 6 -9
3 -6 -9 6 -35 -45 -29 -55 3 -5 1 -11 -5 -15 -6 -4 -8 -11 -5 -16 4 -5 1 -9
-5 -9 -6 0 -8 -4 -5 -10 3 -5 1 -10 -5 -10 -6 0 -10 -8 -8 -17 2 -11 -2 -17
-11 -15 -12 3 -12 0 -1 -12 7 -10 8 -16 2 -16 -6 0 -9 -9 -7 -20 2 -11 0 -18
-6 -15 -5 4 -9 -3 -9 -14 0 -12 -5 -21 -11 -21 -8 0 -7 -6 2 -17 10 -11 10
-14 2 -9 -12 6 -18 -5 -14 -26 0 -5 -7 -8 -16 -8 -15 0 -16 -2 -3 -10 14 -9 7
-14 -13 -11 -4 1 -3 -8 4 -20 9 -17 8 -20 -2 -14 -9 6 -11 2 -7 -13 4 -13 2
-20 -6 -19 -6 1 -10 -6 -8 -17 2 -13 -1 -16 -10 -10 -9 5 -8 2 2 -11 8 -10 10
-16 4 -12 -7 4 -15 0 -18 -9 -4 -10 -2 -13 7 -8 6 4 4 -2 -6 -13 -9 -11 -14
-22 -11 -25 3 -4 -2 -18 -11 -32 -10 -14 -13 -26 -9 -26 5 0 1 -5 -9 -11 -12
-7 -15 -15 -9 -22 5 -8 -5 -26 -31 -52 -22 -22 -36 -33 -32 -25 5 8 -3 5 -17
-8 -18 -16 -28 -20 -33 -12 -5 8 -11 7 -23 -2 -12 -10 -14 -10 -8 0 4 7 1 12
-8 12 -9 0 -18 0 -21 0 -9 0 -45 40 -45 50 0 6 -5 10 -11 10 -5 0 -8 4 -5 9 3
5 0 11 -7 14 -14 5 -16 34 -4 54 4 6 3 15 -3 18 -8 5 -7 12 2 22 6 8 13 22 15
31 1 9 6 18 12 20 5 2 8 9 5 17 -3 7 0 16 5 20 6 3 9 11 6 16 -4 5 -2 9 3 9 5
0 8 12 6 26 -2 20 1 24 13 20 14 -6 14 -4 2 11 -8 9 -9 14 -3 10 14 -8 24 25
19 55 -3 11 -2 18 2 14 3 -3 12 -1 20 5 10 9 10 15 2 25 -9 11 -7 15 5 20 9 3
13 10 10 15 -3 5 0 9 5 9 6 0 11 5 11 11 0 5 -5 7 -12 3 -7 -5 -8 -3 -4 5 5 7
15 10 25 6 12 -5 13 -3 4 6 -14 14 -5 42 11 32 6 -4 4 2 -4 12 -9 11 -10 16
-2 11 8 -5 12 -1 12 11 0 11 5 24 12 31 9 9 9 12 0 12 -8 0 -5 8 7 21 11 12
17 27 14 35 -3 8 0 14 7 14 9 0 9 4 -1 17 -8 10 -9 14 -2 10 6 -4 14 -3 18 3
3 5 0 10 -7 10 -8 0 -6 5 5 11 9 6 15 14 12 20 -4 5 -1 9 4 9 6 0 11 9 11 20
0 11 4 20 9 20 6 0 8 9 6 20 -2 11 2 26 8 33 11 12 16 25 21 56 2 8 8 17 15
19 9 3 9 8 -1 20 -7 10 -8 14 -4 10 5 -4 15 4 23 18 15 30 17 46 3 24 -7 -10
-10 -11 -10 -2 0 7 7 15 16 19 13 5 13 7 2 14 -11 7 -11 9 1 9 8 0 11 6 7 17
-4 10 -4 14 0 10 11 -11 33 13 27 29 -3 8 0 21 7 29 7 9 10 18 7 22 -4 3 1 12
11 19 14 11 14 13 2 14 -12 0 -11 3 3 11 9 6 15 14 12 20 -4 5 0 9 7 9 9 0 9
3 -2 10 -11 7 -11 10 -2 10 7 0 10 5 7 10 -3 6 -1 10 5 10 6 0 9 4 5 9 -3 5
-1 12 5 16 5 3 10 17 10 31 0 14 7 27 15 30 11 5 12 10 6 18 -7 8 -4 16 9 26
20 14 29 37 10 25 -12 -8 21 57 35 67 6 5 4 8 -5 8 -13 0 -13 1 0 10 8 5 11
10 6 10 -5 0 -1 9 8 19 10 11 15 25 11 30 -3 6 -2 11 4 11 5 0 8 9 6 20 -2 11
0 18 4 15 5 -3 12 2 15 11 4 10 2 13 -7 8 -6 -4 -3 3 8 16 11 13 14 20 8 16
-9 -5 -11 -2 -7 8 3 9 10 16 16 16 5 0 6 5 3 11 -4 6 1 17 11 25 11 9 13 12 6
9 -11 -6 -11 -3 0 16 7 13 18 27 23 31 6 5 4 8 -5 8 -9 0 -11 3 -5 8 17 12 41
47 28 38 -7 -4 -13 -2 -13 3 0 6 8 11 18 12 11 0 12 2 4 6 -10 4 -9 10 5 26
12 14 13 18 3 12 -13 -8 -13 -7 0 11 8 10 19 22 25 26 5 4 2 10 -8 13 -15 6
-15 8 3 24 11 9 22 31 23 49 2 17 7 35 12 40 5 4 5 1 0 -7 -5 -10 -4 -12 4 -7
6 4 10 15 9 24 -2 9 2 16 9 15 6 -1 10 5 8 15 -1 9 3 20 9 24 7 5 6 8 -4 8
-12 0 -12 2 -2 9 8 5 15 20 15 34 1 14 5 23 10 20 4 -2 7 1 7 6 0 20 2 26 12
38 5 7 7 17 3 23 -3 5 -1 10 5 10 6 0 9 4 6 9 -3 5 1 12 10 15 14 5 14 9 3 23
-11 13 -11 15 -1 9 9 -6 12 -3 10 10 -2 13 2 18 12 16 8 -2 12 0 8 4 -4 4 -2
14 5 22 10 13 9 14 -3 7 -8 -4 -1 5 15 21 17 16 33 27 38 26 4 -1 7 3 7 8 0 6
5 10 11 10 5 0 7 -6 3 -12 -4 -7 1 -5 11 4 10 9 23 14 29 11 5 -4 23 -8 39
-10z m-1143 -575 c0 -9 4 -8 10 2 6 10 10 11 10 3 0 -7 12 -13 26 -13 16 0 23
-4 18 -12 -5 -8 0 -9 14 -6 12 4 20 3 17 -1 -2 -4 6 -23 18 -42 25 -38 27 -70
6 -96 -9 -11 -10 -14 -1 -9 16 10 15 -2 -2 -19 -7 -8 -16 -11 -20 -8 -6 6 -10
-13 -7 -31 1 -5 -4 -6 -11 -4 -15 5 -50 -27 -40 -37 4 -3 -1 -3 -11 1 -10 3
-17 1 -17 -6 0 -6 -4 -9 -9 -6 -5 3 -12 -1 -15 -10 -4 -10 -14 -14 -26 -11
-11 3 -18 2 -15 -3 3 -4 -3 -14 -12 -21 -14 -12 -16 -12 -9 1 4 8 0 6 -8 -4
-9 -11 -16 -16 -16 -10 0 5 -4 4 -8 -3 -4 -6 -14 -13 -22 -15 -8 -2 -25 -13
-38 -26 -13 -12 -27 -20 -32 -17 -4 3 -11 -2 -14 -11 -4 -9 -13 -14 -22 -10
-8 3 -12 2 -9 -4 3 -5 -6 -12 -20 -16 -13 -3 -22 -10 -19 -16 3 -5 -2 -8 -12
-6 -12 2 -18 -2 -16 -10 1 -8 -2 -11 -6 -8 -8 5 -19 -2 -68 -43 -7 -6 -16 -5
-24 2 -9 8 -11 8 -7 1 8 -13 -14 -34 -38 -38 -9 -1 -20 -7 -23 -12 -12 -15
-52 -35 -62 -29 -5 3 -11 -3 -15 -14 -3 -11 -13 -21 -21 -23 -13 -3 -13 -6 4
-25 11 -13 25 -23 31 -23 7 0 9 -5 5 -12 -5 -8 0 -7 11 2 17 13 18 13 13 -1
-5 -13 -2 -16 13 -12 10 3 19 0 19 -6 0 -6 7 -11 15 -11 8 0 15 -4 15 -10 0
-5 7 -10 16 -10 8 0 12 -4 9 -10 -3 -5 1 -10 10 -10 9 0 13 -4 10 -10 -3 -5 0
-7 8 -4 8 3 21 -2 30 -10 9 -9 23 -16 32 -16 9 0 13 -4 10 -10 -3 -5 1 -10 9
-10 9 0 16 -6 16 -12 0 -9 4 -8 10 2 7 10 10 11 10 2 0 -16 60 -53 73 -45 7 4
8 -1 3 -13 -4 -10 -4 -15 0 -11 4 4 13 2 21 -4 7 -6 13 -8 13 -4 0 4 9 -3 21
-16 11 -13 17 -17 13 -9 -7 12 -5 13 8 3 8 -7 19 -9 23 -5 5 4 5 1 1 -5 -4 -8
-1 -13 8 -13 9 0 16 -5 16 -11 0 -5 4 -8 9 -5 5 3 12 -1 15 -10 4 -9 9 -14 13
-11 3 4 12 -1 19 -11 7 -9 21 -17 31 -17 11 0 17 -6 15 -15 -2 -8 0 -12 4 -8
4 4 14 2 22 -5 13 -10 15 -9 8 3 -4 8 0 6 9 -5 8 -11 26 -28 38 -38 12 -10 15
-15 7 -11 -10 5 -8 -1 5 -16 12 -14 14 -20 5 -15 -13 8 -13 7 -1 -8 7 -9 10
-17 5 -17 -5 0 -2 -5 6 -10 9 -6 11 -13 5 -17 -5 -5 -11 -17 -13 -28 -2 -11
-13 -28 -25 -38 -12 -10 -15 -15 -7 -11 8 4 6 -2 -5 -13 -13 -14 -22 -16 -27
-9 -5 7 -8 3 -8 -9 0 -17 -2 -17 -10 -5 -9 13 -14 8 -11 -12 0 -4 -9 -4 -22
-1 -12 2 -30 5 -40 5 -10 -1 -23 8 -29 18 -9 14 -16 16 -25 8 -10 -8 -13 -6
-13 6 0 14 -11 21 -32 17 -5 0 -7 5 -5 12 1 6 -4 11 -10 10 -7 -2 -13 1 -13 7
0 5 -8 6 -17 3 -13 -5 -15 -2 -10 11 5 12 3 16 -5 14 -7 -3 -19 1 -26 9 -8 7
-18 11 -23 8 -5 -4 -9 -1 -9 4 0 6 -7 11 -15 11 -8 0 -15 5 -15 10 0 6 -6 10
-14 10 -7 0 -21 11 -30 24 -10 17 -23 23 -40 22 -18 -2 -23 1 -18 12 3 9 1 13
-5 9 -10 -6 -104 49 -111 65 -2 5 -8 6 -13 2 -5 -3 -9 2 -9 10 0 9 -5 16 -11
16 -5 0 -7 -6 -4 -12 4 -7 -2 -4 -12 7 -10 11 -30 26 -45 34 -16 8 -28 18 -28
23 0 5 -4 7 -9 3 -5 -3 -12 -1 -16 5 -4 6 -11 8 -16 5 -5 -4 -9 -1 -9 5 0 7
-7 10 -15 6 -8 -3 -14 -2 -14 2 4 22 -3 31 -18 25 -11 -4 -14 -3 -9 5 4 7 1
12 -8 12 -9 0 -16 5 -16 11 0 6 -6 9 -14 6 -17 -7 -36 12 -36 36 0 10 -4 15
-10 12 -5 -3 -10 3 -10 14 0 11 -5 23 -11 27 -6 3 -9 17 -6 30 2 13 0 22 -6
21 -12 -3 -18 31 -6 38 5 3 3 15 -4 26 -9 14 -9 22 -1 27 6 4 10 15 8 25 -1 9
2 17 6 17 5 0 7 9 5 20 -2 13 2 20 11 20 8 0 14 5 14 11 0 5 -5 7 -11 4 -6 -4
-5 2 3 14 7 12 16 21 21 21 4 0 5 5 2 10 -3 6 1 10 9 10 8 0 20 9 26 21 7 11
14 18 17 15 3 -3 17 4 31 14 13 11 31 20 39 20 8 0 12 4 9 9 -3 4 6 13 20 20
16 7 22 16 18 24 -5 8 -2 8 9 -2 13 -11 17 -11 17 -1 0 8 3 10 7 7 3 -4 16 4
27 16 12 13 27 22 34 19 7 -2 12 1 12 8 0 6 5 8 10 5 6 -3 10 -2 10 4 0 6 16
18 35 27 19 9 35 20 35 25 0 5 7 9 15 9 8 0 15 4 15 9 0 5 11 12 25 15 14 4
23 11 20 16 -3 6 1 7 9 4 9 -3 16 -1 16 5 0 6 7 11 15 11 8 0 15 5 15 11 0 5
4 8 9 5 5 -3 12 1 15 10 4 9 13 14 22 10 8 -3 12 -2 9 3 -3 5 4 12 15 16 11 3
20 11 20 17 0 6 3 8 7 5 3 -4 12 1 20 11 9 10 12 11 7 2 -4 -8 4 -5 18 8 13
12 28 19 31 15 4 -3 7 1 7 10 0 10 5 17 11 17 5 0 7 -5 3 -12 -4 -6 5 -3 19 8
15 10 27 22 27 26 0 4 9 5 20 3 11 -2 20 0 20 6 0 5 5 9 10 9 6 0 10 -6 10
-12z m1382 3 c16 9 19 8 13 -2 -6 -9 -4 -11 8 -6 9 3 18 0 21 -9 3 -8 14 -14
24 -14 11 0 25 -7 32 -15 7 -8 16 -12 21 -9 5 3 9 0 9 -5 0 -6 7 -11 15 -11 8
0 15 -3 15 -8 0 -4 9 -13 21 -20 12 -8 18 -9 15 -3 -4 7 -1 8 8 5 9 -3 14 -11
13 -17 -1 -7 4 -11 11 -9 7 1 15 -5 18 -13 4 -8 12 -15 20 -15 8 0 14 -5 14
-11 0 -5 5 -7 10 -4 6 3 10 1 10 -6 0 -7 3 -10 6 -6 4 3 15 -4 26 -16 11 -12
17 -16 13 -9 -3 6 -1 12 4 12 6 0 11 -7 11 -15 0 -9 6 -12 17 -8 11 4 14 3 9
-5 -6 -11 5 -17 27 -13 4 0 7 -3 7 -9 0 -5 7 -10 15 -10 8 0 19 -9 25 -20 6
-11 19 -20 30 -20 10 0 22 -5 25 -10 4 -6 11 -7 17 -4 6 4 8 2 5 -3 -8 -12 42
-49 61 -45 6 2 12 -2 12 -9 0 -6 7 -8 16 -5 8 3 13 2 10 -3 -3 -5 1 -12 10
-15 8 -3 12 -11 8 -17 -5 -8 -3 -9 5 -5 7 5 21 0 33 -11 15 -12 19 -14 14 -3
-4 8 1 5 10 -7 9 -13 25 -23 35 -23 13 0 17 -5 12 -17 -4 -10 -2 -14 4 -10 6
4 17 -1 24 -10 12 -14 12 -16 -1 -9 -8 4 -6 0 4 -8 11 -9 17 -19 13 -22 -4 -4
1 -13 11 -21 9 -8 11 -12 5 -8 -7 3 -13 1 -13 -4 0 -6 8 -11 18 -11 14 0 15
-2 2 -10 -12 -8 -12 -10 -1 -10 11 0 11 -3 0 -17 -8 -10 -9 -14 -2 -10 8 5 11
-1 9 -20 -1 -16 2 -34 8 -42 9 -12 8 -13 -3 -6 -11 6 -13 3 -9 -13 4 -12 2
-25 -3 -28 -5 -3 -9 -14 -9 -25 0 -11 -4 -18 -9 -14 -6 3 -8 -3 -6 -14 2 -11
-3 -22 -11 -25 -8 -3 -14 -15 -14 -27 0 -12 -5 -19 -12 -17 -7 3 -27 -11 -45
-31 -17 -19 -35 -32 -39 -28 -4 4 -12 -1 -19 -10 -11 -15 -29 -22 -62 -25 -10
-1 -10 -5 -1 -17 7 -9 8 -13 4 -9 -5 4 -16 2 -24 -5 -11 -8 -14 -8 -9 0 4 6 2
15 -4 19 -7 4 -10 3 -6 -2 5 -9 -20 -51 -28 -46 -13 7 -25 1 -19 -10 5 -8 2
-9 -9 -5 -10 3 -17 3 -17 -1 0 -4 -12 -16 -27 -26 -17 -13 -24 -14 -19 -5 4 8
0 5 -8 -5 -9 -11 -16 -16 -16 -10 0 5 -5 1 -11 -9 -6 -9 -14 -15 -20 -12 -5 4
-9 1 -9 -4 0 -6 -9 -11 -20 -11 -11 0 -19 -6 -17 -12 1 -8 -6 -12 -18 -10 -11
2 -17 0 -13 -4 10 -9 -50 -46 -63 -38 -5 3 -8 1 -7 -4 2 -6 -1 -11 -7 -13 -5
-1 -16 -9 -23 -18 -8 -9 -11 -10 -7 -4 4 9 1 11 -10 7 -9 -4 -13 -9 -10 -12 6
-6 -34 -36 -53 -39 -29 -4 -44 -14 -39 -26 3 -7 -5 -13 -21 -14 -13 0 -28 -7
-33 -15 -7 -10 -9 -10 -9 2 0 9 -3 11 -8 4 -11 -16 -79 -11 -102 9 -11 9 -26
17 -33 18 -9 0 -8 2 1 6 10 4 8 9 -7 20 -12 8 -21 23 -21 34 0 10 -6 19 -12
20 -9 0 -9 2 1 6 11 5 11 7 0 14 -11 7 -11 9 -1 9 7 0 10 5 7 10 -3 6 -2 10 4
10 6 0 7 7 4 17 -4 11 -3 14 5 9 7 -4 12 -1 12 9 0 8 7 18 15 21 8 4 12 10 9
15 -3 5 -2 9 3 8 15 -4 43 13 37 23 -3 5 0 8 7 6 20 -4 79 34 72 45 -4 6 -1 7
6 2 8 -4 21 1 32 14 11 12 26 21 34 21 8 0 15 5 15 11 0 5 5 7 10 4 6 -3 10
-1 10 5 0 6 4 9 9 5 6 -3 15 3 21 14 6 11 16 18 24 15 7 -3 16 2 19 10 4 9 13
16 22 16 8 0 15 4 15 10 0 5 7 6 17 3 10 -4 14 -2 10 4 -4 6 6 16 23 22 17 5
30 15 30 21 0 6 4 9 8 6 5 -3 19 4 30 15 15 13 22 15 23 7 0 -10 2 -10 6 0 2
6 9 10 14 6 5 -3 8 0 7 8 -2 7 3 12 10 11 6 -2 12 4 12 13 0 8 4 13 9 9 5 -3
17 2 25 11 9 8 16 12 16 8 0 -4 7 1 16 12 8 10 12 12 8 4 -6 -11 -2 -10 13 3
11 9 23 14 28 10 4 -5 4 -2 0 6 -6 11 -4 13 11 7 10 -4 15 -4 12 0 -4 4 -3 15
3 25 8 15 6 17 -7 12 -12 -4 -15 -3 -10 5 5 8 1 10 -10 5 -11 -4 -15 -2 -11 4
4 6 0 14 -9 17 -10 4 -13 2 -8 -7 5 -8 2 -8 -9 2 -9 7 -14 18 -10 25 3 6 3 8
-2 4 -4 -4 -17 -2 -29 4 -11 7 -24 11 -28 10 -5 -1 -8 2 -8 8 0 5 -6 10 -13
10 -7 0 -22 8 -33 18 -11 9 -26 18 -34 20 -24 6 -40 23 -33 36 3 6 3 8 -1 4
-4 -3 -19 0 -33 7 -15 8 -30 12 -35 9 -5 -3 -7 0 -6 7 2 7 -6 15 -17 18 -30 9
-105 60 -105 71 0 6 -5 10 -11 10 -5 0 -7 -6 -4 -12 4 -7 -2 -4 -12 8 -10 11
-22 22 -28 25 -5 2 -9 8 -7 12 1 5 -6 6 -17 2 -12 -4 -21 0 -25 11 -4 9 -12
14 -22 10 -8 -3 -13 -2 -11 2 3 4 -7 16 -22 27 -16 12 -22 14 -16 4 6 -8 0 -3
-12 11 -13 14 -23 21 -23 15 0 -5 -9 4 -20 20 -11 17 -18 36 -15 43 3 7 0 10
-5 7 -10 -6 -14 7 -11 33 1 6 -4 12 -11 12 -8 0 -9 3 -3 8 6 4 19 18 30 32
l20 25 -20 -14 c-11 -7 -8 -2 7 12 15 14 24 28 20 32 -4 4 0 6 8 3 8 -3 21 1
28 9 8 7 18 11 23 8 5 -4 9 0 10 7 0 10 2 10 6 1 3 -10 10 -10 25 -2z m-465
-426 c0 -8 -4 -12 -9 -9 -5 3 -6 10 -3 15 9 13 12 11 12 -6z"/>
<path d="M3555 4330 c3 -5 8 -10 11 -10 2 0 4 5 4 10 0 6 -5 10 -11 10 -5 0
-7 -4 -4 -10z"/>
</g>
</svg>
